<svg xmlns="http://www.w3.org/2000/svg" width="32" height="32" viewBox="0 0 32 32">
  <!-- Black rounded square background -->
  <rect width="32" height="32" rx="6" fill="#18181b"/>
  <!-- Scroll icon (from Lucide) - white on black -->
  <g transform="translate(6, 6) scale(0.833)">
    <path d="M10 17v2a2 2 0 0 1-2 2H6a2 2 0 0 1-2-2v-2" stroke="white" stroke-width="2" stroke-linecap="round" stroke-linejoin="round" fill="none"/>
    <path d="M6 3v14a2 2 0 0 0 2 2h12a2 2 0 0 0 2-2V5a2 2 0 0 0-2-2H8a2 2 0 0 0-2 2Z" stroke="white" stroke-width="2" stroke-linecap="round" stroke-linejoin="round" fill="none"/>
    <path d="M10 7h4" stroke="white" stroke-width="2" stroke-linecap="round" stroke-linejoin="round"/>
    <path d="M10 11h4" stroke="white" stroke-width="2" stroke-linecap="round" stroke-linejoin="round"/>
  </g>
</svg>
